<?xml version="1.0" encoding="UTF-8" standalone="no"?><!DOCTYPE svg PUBLIC "-//W3C//DTD SVG 1.1//EN" "http://www.w3.org/Graphics/SVG/1.1/DTD/svg11.dtd"><svg width="250px" height="94px" version="1.1" xmlns="http://www.w3.org/2000/svg" xmlns:xlink="http://www.w3.org/1999/xlink" xml:space="preserve" xmlns:serif="http://www.serif.com/" style="fill-rule:evenodd;clip-rule:evenodd;stroke-linejoin:round;stroke-miterlimit:2;"><g><path d="M0,0.23L0,55.734L50.598,55.734L50.598,0.23L25.299,31.585L0,0.23Z" style="fill:#fff;fill-rule:nonzero;"/><path d="M55.964,55.734L102.499,55.734L79.27,0L55.964,55.734Z" style="fill:#fff;fill-rule:nonzero;"/><path d="M128.105,31.585C136.538,31.585 143.361,24.839 143.361,16.406C143.361,7.973 136.538,1.15 128.105,1.15L107.866,1.15L107.866,55.734L147.501,55.734L128.105,31.585Z" style="fill:#fff;fill-rule:nonzero;"/><path d="M146.657,1.15L146.657,8.05L157.314,8.05L157.314,55.734L175.713,55.734L175.713,8.05L186.293,8.05L186.293,1.15L146.657,1.15Z" style="fill:#fff;fill-rule:nonzero;"/><rect x="192.426" y="1.15" width="7.513" height="54.584" style="fill:#fff;fill-rule:nonzero;"/><path d="M242.487,1.15L242.487,43.852L207.605,0.23L207.605,55.734L250,55.734L250,1.15L242.487,1.15Z" style="fill:#fff;fill-rule:nonzero;"/><path d="M-0,61.117L-0,93.41L4.445,93.41L4.445,79.169L11.157,79.169C16.101,79.169 20.138,75.132 20.138,70.143C20.138,65.154 16.101,61.117 11.157,61.117L-0,61.117Z" style="fill:#fff;fill-rule:nonzero;"/><path d="M55.198,77.309C55.198,68.193 47.941,60.845 39.051,60.845C30.116,60.845 22.859,68.193 22.859,77.309C22.859,86.426 30.116,93.819 39.051,93.819C47.941,93.819 55.198,86.426 55.198,77.309Z" style="fill:#fff;fill-rule:nonzero;"/><path d="M70.8,79.123C75.789,79.123 79.826,75.132 79.826,70.143C79.826,65.154 75.789,61.117 70.8,61.117L58.826,61.117L58.826,93.41L82.275,93.41L70.8,79.123Z" style="fill:#fff;fill-rule:nonzero;"/><path d="M98.467,77.309L108.717,64.564C105.951,62.206 102.368,60.8 98.467,60.8C89.532,60.8 82.32,68.193 82.32,77.309C82.32,86.426 89.532,93.819 98.467,93.819C102.368,93.819 105.951,92.413 108.717,90.054L98.467,77.309Z" style="fill:#fff;fill-rule:nonzero;"/><path d="M135.205,61.117L125.363,74.815L115.611,61.117L112.346,61.117L112.346,93.41L115.702,93.41L125.363,79.894L134.978,93.41L138.335,93.41L138.335,61.117L135.205,61.117Z" style="fill:#fff;fill-rule:nonzero;"/><path d="M160.241,78.987L160.241,74.905L152.395,74.905L160.241,65.199L160.241,61.117L142.87,61.117L142.87,93.41L160.922,93.41L160.922,89.328L152.576,78.987L160.241,78.987Z" style="fill:#fff;fill-rule:nonzero;"/><path d="M177.431,79.123C182.42,79.123 186.457,75.132 186.457,70.143C186.457,65.154 182.42,61.117 177.431,61.117L165.457,61.117L165.457,93.41L188.906,93.41L177.431,79.123Z" style="fill:#fff;fill-rule:nonzero;"/><path d="M221.29,77.309C221.29,68.193 214.033,60.845 205.143,60.845C196.208,60.845 188.951,68.193 188.951,77.309C188.951,86.426 196.208,93.819 205.143,93.819C214.033,93.819 221.29,86.426 221.29,77.309Z" style="fill:#fff;fill-rule:nonzero;"/><path d="M245.555,61.117L245.555,86.38L224.918,60.573L224.918,93.41L250,93.41L250,61.117L245.555,61.117Z" style="fill:#fff;fill-rule:nonzero;"/></g></svg>