<?xml version="1.0" encoding="UTF-8" standalone="no"?><!DOCTYPE svg PUBLIC "-//W3C//DTD SVG 1.1//EN" "http://www.w3.org/Graphics/SVG/1.1/DTD/svg11.dtd"><svg width="1182px" height="444px" version="1.1" xmlns="http://www.w3.org/2000/svg" xmlns:xlink="http://www.w3.org/1999/xlink" xml:space="preserve" xmlns:serif="http://www.serif.com/" style="fill-rule:evenodd;clip-rule:evenodd;stroke-linejoin:round;stroke-miterlimit:2;"><path d="M-0,1.087L-0,263.312L239.046,263.312L239.046,1.087L119.523,149.222L-0,1.087Z" style="fill:#fff;fill-rule:nonzero;"/><path d="M264.399,263.312L484.248,263.312L374.505,0L264.399,263.312Z" style="fill:#fff;fill-rule:nonzero;"/><path d="M605.22,149.222C645.061,149.222 677.296,117.35 677.296,77.509C677.296,37.668 645.061,5.433 605.22,5.433L509.602,5.433L509.602,263.312L696.854,263.312L605.22,149.222Z" style="fill:#fff;fill-rule:nonzero;"/><path d="M692.87,5.433L692.87,38.03L743.214,38.03L743.214,263.312L830.14,263.312L830.14,38.03L880.122,38.03L880.122,5.433L692.87,5.433Z" style="fill:#fff;fill-rule:nonzero;"/><rect x="909.097" y="5.433" width="35.495" height="257.879" style="fill:#fff;fill-rule:nonzero;"/><path d="M1145.61,5.433L1145.61,207.173L980.811,1.087L980.811,263.312L1181.1,263.312L1181.1,5.433L1145.61,5.433Z" style="fill:#fff;fill-rule:nonzero;"/><path d="M0,288.743L0,441.309L20.999,441.309L20.999,374.025L52.712,374.025C76.069,374.025 95.14,354.955 95.14,331.384C95.14,307.813 76.069,288.743 52.712,288.743L0,288.743Z" style="fill:#fff;fill-rule:nonzero;"/><path d="M260.777,365.24C260.777,322.17 226.492,287.457 184.494,287.457C142.281,287.457 107.996,322.17 107.996,365.24C107.996,408.31 142.281,443.237 184.494,443.237C226.492,443.237 260.777,408.31 260.777,365.24Z" style="fill:#fff;fill-rule:nonzero;"/><path d="M334.489,373.811C358.059,373.811 377.13,354.955 377.13,331.384C377.13,307.813 358.059,288.743 334.489,288.743L277.919,288.743L277.919,441.309L388.701,441.309L334.489,373.811Z" style="fill:#fff;fill-rule:nonzero;"/><path d="M465.198,365.24L513.625,305.028C500.554,293.885 483.626,287.243 465.198,287.243C422.985,287.243 388.915,322.17 388.915,365.24C388.915,408.31 422.985,443.237 465.198,443.237C483.626,443.237 500.554,436.595 513.625,425.452L465.198,365.24Z" style="fill:#fff;fill-rule:nonzero;"/><path d="M638.764,288.743L592.265,353.455L546.196,288.743L530.768,288.743L530.768,441.309L546.624,441.309L592.265,377.454L637.692,441.309L653.549,441.309L653.549,288.743L638.764,288.743Z" style="fill:#fff;fill-rule:nonzero;"/><path d="M757.045,373.168L757.045,353.883L719.975,353.883L757.045,308.028L757.045,288.743L674.977,288.743L674.977,441.309L760.26,441.309L760.26,422.024L720.832,373.168L757.045,373.168Z" style="fill:#fff;fill-rule:nonzero;"/><path d="M838.257,373.811C861.828,373.811 880.898,354.955 880.898,331.384C880.898,307.813 861.828,288.743 838.257,288.743L781.687,288.743L781.687,441.309L892.469,441.309L838.257,373.811Z" style="fill:#fff;fill-rule:nonzero;"/><path d="M1045.46,365.24C1045.46,322.17 1011.18,287.457 969.181,287.457C926.968,287.457 892.684,322.17 892.684,365.24C892.684,408.31 926.968,443.237 969.181,443.237C1011.18,443.237 1045.46,408.31 1045.46,365.24Z" style="fill:#fff;fill-rule:nonzero;"/><path d="M1160.1,288.743L1160.1,408.096L1062.61,286.171L1062.61,441.309L1181.1,441.309L1181.1,288.743L1160.1,288.743Z" style="fill:#fff;fill-rule:nonzero;"/></svg>