<?xml version="1.0" encoding="UTF-8"?>
<svg width="2921px" height="2833px" viewBox="0 0 2921 2833" version="1.1" xmlns="http://www.w3.org/2000/svg" xmlns:xlink="http://www.w3.org/1999/xlink">
    <!-- Generator: Sketch 55 (78076) - https://sketchapp.com -->
    <title>Logo</title>
    <desc>Created with Sketch.</desc>
    <g id="Page-1" stroke="none" stroke-width="1" fill="none" fill-rule="evenodd">
        <g id="roboclean" fill="#DD1562" fill-rule="nonzero">
            <g id="Group" transform="translate(1460.400000, 1416.100000) scale(-1, 1) rotate(-180.000000) translate(-1460.400000, -1416.100000) translate(0.400000, 0.100000)">
                <path d="M1289.6,2831.1 C1287.7,2830.6 1275.3,2830.1 1262.1,2830 C1237.4,2829.9 1223.8,2828.8 1193.6,2824.6 C1165.2,2820.6 1154.1,2818.5 1108.6,2808.2 C1077.4,2801.1 1037.6,2790.9 1022.1,2786.1 C1018.3,2784.9 1011.3,2782.8 1006.6,2781.5 C1001.9,2780.1 997.2,2778.6 996.1,2778.1 C994.1,2777.1 986.9,2774.5 976.1,2771 C972.8,2769.9 967.2,2767.9 963.6,2766.5 C950.7,2761.4 932.1,2754 930.1,2753.1 C929,2752.6 924.7,2750.7 920.6,2748.8 C916.5,2747 911.5,2744.8 909.6,2744.1 C905.6,2742.5 859.3,2719.1 850.1,2714 C846.8,2712.2 842.2,2709.7 839.8,2708.5 C827.1,2701.8 777.5,2669.9 758.6,2656.3 C696.1,2611.2 667.7,2587.7 629,2549.5 C611.8,2532.5 596.5,2516 584.5,2501.6 C580,2496.1 573.9,2488.9 571.1,2485.6 C561.8,2474.9 527.1,2427.8 513.7,2407.6 C510.7,2403.2 506.4,2396.9 504.1,2393.6 C501.8,2390.3 499.6,2386.8 499.3,2385.8 C498.9,2384.9 495.3,2378.7 491.1,2372.1 C487,2365.5 483.6,2359.7 483.6,2359.3 C483.6,2358.9 482.5,2356.9 481.1,2354.8 C479.7,2352.8 475.3,2344.9 471.4,2337.4 C467.5,2329.8 463.8,2322.5 463,2321.1 C461.9,2318.9 458.5,2311.4 454.1,2301.6 C453.3,2300 451.1,2295 449,2290.6 C447,2286.2 444.3,2279.7 442.9,2276.1 C441.6,2272.5 440.1,2268.6 439.6,2267.4 C439,2266.1 438.2,2264.1 437.7,2262.9 C437.3,2261.6 436.4,2259.5 435.8,2258.1 C431.4,2247.8 418.7,2206.8 413.6,2186.6 C405.7,2155.2 394.6,2107.4 393.1,2098.6 C390.9,2085 377.1,2008.2 363.1,1930.7 C356.7,1895.5 351.3,1864.5 351.1,1861.7 C350.9,1858.9 340.5,1801 328.1,1733.1 C283.9,1491.3 257.5,1347 249.1,1302.1 C244.5,1277.1 238.4,1244 235.7,1228.6 C232.9,1213.2 229.3,1193.2 227.7,1184.1 C217.8,1129.2 160.2,817.6 158.1,808.1 C156.8,801.8 151.4,773 146.1,744.1 C140.9,715.2 135.5,686.9 134.1,681.1 C132.8,675.3 126.7,643.4 120.6,610.1 C114.5,576.8 108.7,546 107.7,541.6 C106.6,537.2 104.6,527.1 103.2,519.1 C99.9,501 97.7,489.4 82.1,408.5 C75.2,372.7 69.6,342.7 69.6,341.8 C69.6,340.2 90.3,340.1 360.5,340.1 L651.4,340.1 L651.9,342.4 C652.2,343.6 656.8,368.2 662.1,397.1 C667.3,426 673.2,456.4 675.1,464.6 C677,472.9 686.7,523.7 696.5,577.6 C706.4,631.5 719.4,702.6 725.5,735.6 C731.5,768.6 753.2,887 773.6,998.6 C794,1110.3 811.8,1207 813.2,1213.6 C815.3,1223.9 818.6,1241.5 831.7,1313.1 C832.9,1319.4 834.9,1330 836.1,1336.6 C837.4,1343.2 839.6,1355.8 841.1,1364.6 C842.5,1373.4 851.5,1424 861.1,1477.1 C870.6,1530.2 878.4,1574.5 878.4,1575.7 C878.4,1576.8 885.7,1617.4 894.5,1665.9 C903.4,1714.3 910.6,1755.1 910.6,1756.5 C910.6,1757.9 915.1,1783.9 920.6,1814.2 C926.1,1844.5 930.6,1870.4 930.6,1871.7 C930.6,1873 933.8,1891.5 937.6,1912.8 C941.5,1934.1 945.1,1955 945.6,1959.1 C948.3,1980.5 964.9,2072.5 966.5,2074.6 C966.9,2075.1 968.3,2079 969.6,2083.1 C971.8,2090.3 972.9,2093.1 978.3,2105.1 C981.2,2111.3 982,2112.9 986.8,2122.1 C995.6,2138.6 1000.2,2144.5 1018.6,2163.5 C1034.6,2180 1051.1,2193.9 1064.2,2202.1 C1070.4,2206 1075.6,2209.1 1075.9,2209.1 C1076.2,2209.1 1079.5,2211 1083.2,2213.3 C1088.6,2216.5 1111.7,2228 1127.1,2235.1 C1132.9,2237.8 1151.7,2244.8 1163.1,2248.6 C1177,2253.3 1190.7,2255.6 1211.1,2256.7 C1217.2,2257 1224.6,2257.7 1227.6,2258.3 C1235.3,2259.9 2178.3,2259.9 2184.1,2258.3 C2186.3,2257.8 2193.1,2257 2199.1,2256.6 C2215.2,2255.7 2224.3,2254.2 2231,2251.5 C2234.3,2250.2 2237.4,2249.1 2237.9,2249.1 C2241.8,2249.1 2281.8,2229.2 2292,2222.2 C2300.7,2216.2 2321.8,2194.2 2324.7,2188.1 C2326.2,2185.1 2329.3,2178.6 2331.7,2173.7 C2335.1,2166.6 2336.1,2163.3 2336.6,2157.3 C2337.3,2148.6 2337,2128.8 2336.1,2118.6 C2335.7,2114.8 2335.3,2109.6 2335,2107.1 C2334.2,2097.8 2326.4,2057.4 2324.4,2052.1 C2316.6,2030.9 2306.1,2008.8 2297.4,1995.5 C2292,1987.2 2274.1,1967.4 2262.5,1956.9 C2243.8,1939.9 2232.5,1931.6 2216.6,1922.8 C2213,1920.9 2207.2,1917.7 2203.6,1915.7 C2197.1,1912.1 2182.9,1905.1 2172.6,1900.4 C2169.6,1899 2166.3,1897.5 2165.3,1897 C2161.5,1895 2135.9,1885.6 2123.6,1881.7 C2109.6,1877.2 2093.9,1875.2 2062.6,1874 C2035.9,1872.9 2029.3,1872.8 1884.1,1871.1 C1798.7,1870.1 1772.4,1869.3 1754.1,1867 C1708.6,1861.4 1694.3,1858.7 1648.1,1847.7 C1591.1,1834.1 1565.4,1827.1 1531.1,1815.6 C1508.9,1808.2 1472.6,1794.1 1453.9,1785.5 C1451,1784.2 1446,1781.9 1442.9,1780.5 C1429.5,1774.4 1396.5,1757.5 1385.9,1751.3 C1381.9,1749 1377.9,1746.7 1376.9,1746.3 C1373.6,1745.1 1351.3,1731.1 1328.3,1716 C1308.6,1703.1 1298.3,1695.9 1260.3,1668.3 C1214.2,1634.8 1156.1,1580.6 1122.1,1539.1 C1118.3,1534.4 1114.9,1530.4 1114.6,1530.1 C1109.4,1525.1 1099.6,1512.1 1069.3,1470.3 C1057.2,1453.6 1035.8,1421.5 1031.8,1414.1 C1030.2,1411.1 1027.3,1406.1 1025.3,1403 C1023.4,1400 1020.3,1394.8 1018.6,1391.5 C1015.3,1385.6 1001,1358 999.6,1355.1 C999.2,1354.3 997.5,1350.6 995.7,1347 C994,1343.4 992.6,1340.1 992.6,1339.6 C992.6,1339.2 990.6,1334.8 988.3,1329.7 C984.2,1321.3 982.9,1317.9 977.7,1303.9 C969.7,1282.4 968,1277.6 965.6,1270.1 C964.1,1265.4 962.1,1258.9 961.1,1255.6 C960.2,1252.3 958.3,1246.2 957,1242.1 C954.8,1235.3 950.9,1219 937.2,1160.1 C933,1141.6 920.5,1074.9 919.2,1063.1 C918.8,1060.1 918.1,1054 917.5,1049.6 C913.7,1018.7 913.1,1009.4 913.1,975.6 C913.1,936.9 914.3,920.9 919.5,888.6 C924.1,860.4 937.8,801.1 945.1,778.1 C946.4,774 948.7,766.6 950.1,761.6 C951.6,756.7 953.6,750.8 954.6,748.6 C955.6,746.4 958.1,740.1 960.2,734.6 C969.6,709.2 987.9,674.3 1007,645.6 C1050.7,579.9 1088.1,538.2 1140.7,496.6 C1154.9,485.4 1203.8,451 1217.6,442.6 C1226.7,437 1228.9,435.7 1240.1,429.6 C1254.5,421.6 1284.8,406.1 1286,406.1 C1286.3,406.1 1289.4,404.8 1292.8,403.3 C1319.7,391.1 1351.7,380.5 1391.1,370.7 C1442.6,357.9 1477.5,350.4 1503.6,346.6 C1541.3,341 1538.9,341.1 1732,341.1 L1909.4,341.1 L1910,343.8 C1911.3,349.9 2018.7,907.7 2018.9,909.1 C2019,910.1 2017.4,911.1 2014.1,912.1 C2009.8,913.3 1983.1,913.6 1815.6,914.1 C1609.7,914.7 1613.8,914.6 1601.1,919.6 C1597.8,920.9 1594,922.2 1592.6,922.6 C1589.9,923.4 1584.9,925.6 1574.6,930.3 C1552.3,940.6 1542.5,946.5 1531.5,956.2 C1518,968.2 1509.5,978.7 1503.2,991.4 C1500.1,997.6 1497.6,1003.4 1497.6,1004.2 C1497.6,1005 1497.1,1006.2 1496.5,1006.8 C1495.1,1008.2 1494.5,1039.7 1495.7,1051.6 C1496.2,1056.6 1496.8,1062.6 1497,1065.1 C1497.3,1067.6 1499.3,1079.7 1501.6,1092.1 C1505.5,1113.5 1508.8,1125.4 1513.9,1136.6 C1519.7,1149.2 1528.2,1166 1530.8,1169.8 C1532.3,1172.1 1533.6,1174.2 1533.6,1174.6 C1533.6,1178.8 1571.4,1217.9 1587.1,1230 C1589.3,1231.7 1592.9,1234.5 1595.1,1236.2 C1600.5,1240.4 1622.9,1253.6 1635.1,1259.8 C1672.6,1278.9 1706.9,1291.7 1728.6,1294.6 C1746.5,1297 1777.4,1297.9 1876.6,1299 C2018.4,1300.5 2048.2,1301.3 2068.6,1303.6 C2101.9,1307.5 2129.2,1311.8 2151.1,1316.6 C2169.8,1320.7 2238.2,1336.8 2246.6,1339.1 C2273,1346.4 2304,1356.1 2312.1,1359.6 C2313.8,1360.4 2316.5,1361.3 2318.1,1361.7 C2319.8,1362 2323.5,1363.4 2326.4,1364.7 C2329.3,1366 2332.2,1367.1 2332.9,1367.1 C2333.6,1367.1 2336.4,1368.2 2339.1,1369.6 C2341.9,1370.9 2344.5,1372.1 2344.9,1372.1 C2345.4,1372.1 2348.1,1373.2 2350.9,1374.5 C2353.8,1375.8 2357.2,1377.2 2358.6,1377.6 C2360,1378 2363.5,1379.4 2366.3,1380.7 C2369.2,1382 2374.2,1384.3 2377.3,1385.7 C2402.3,1397 2434.3,1413.1 2449.9,1422.3 C2452.5,1423.8 2454.9,1425.1 2455.2,1425.1 C2455.4,1425.1 2459.3,1427.4 2463.9,1430.3 C2473.2,1436.1 2480.1,1440.2 2486.6,1443.9 C2493.2,1447.6 2530.9,1473.2 2547.1,1485 C2554.8,1490.6 2565.6,1498.4 2571.1,1502.3 C2576.6,1506.3 2586.5,1514.1 2593.2,1519.7 C2599.8,1525.3 2607.5,1531.6 2610.3,1533.7 C2626.4,1546.2 2662.8,1580.6 2685.2,1604.7 C2715.4,1637.1 2744.7,1674.4 2777.3,1722.1 C2788.5,1738.4 2800.8,1757.6 2801.9,1760.3 C2802.2,1761.2 2805,1765.9 2808,1770.9 C2812.9,1778.7 2819.1,1790.3 2829.7,1811.1 C2832.2,1816.2 2836.9,1826.4 2840.1,1833.6 C2842.7,1839.6 2844.5,1843.7 2847.2,1849.6 C2848.6,1852.9 2850.2,1856.7 2850.7,1858.1 C2851.1,1859.5 2854,1867.4 2857,1875.6 C2863.6,1893.3 2868.7,1908.1 2871.1,1917.1 C2872.1,1920.7 2873.9,1927 2875.2,1931.1 C2876.6,1935.2 2882.2,1957.7 2887.7,1981.1 C2897.5,2022.5 2910.9,2092 2913.6,2114.6 C2914.2,2120.1 2915.1,2127.5 2915.6,2131.1 C2916.2,2134.7 2916.9,2141.7 2917.2,2146.6 C2917.6,2151.6 2918,2157.2 2918.2,2159.1 C2918.4,2161 2918.7,2175.7 2919,2191.6 C2919.6,2237.6 2915.9,2272.2 2905.7,2316.6 C2890.7,2382.1 2882.4,2412.3 2874.5,2429.6 C2873.5,2431.8 2872,2435.9 2871.1,2438.6 C2867.9,2447.9 2849.8,2486.1 2845.7,2492 C2844.7,2493.4 2842.3,2497.6 2840.2,2501.4 C2838.2,2505.1 2833.5,2512.7 2829.9,2518.4 C2826.2,2524 2822.6,2529.6 2822,2530.8 C2820.6,2533.4 2802.8,2558 2793.3,2570.6 C2764.4,2608.9 2728,2646.7 2697.1,2670.6 C2692.8,2673.9 2688,2677.8 2686.2,2679.2 C2680.3,2684.1 2627.8,2721.2 2623.6,2723.5 C2622.2,2724.2 2616.2,2727.8 2610.1,2731.5 C2604.1,2735.3 2595.3,2740.4 2590.6,2742.9 C2585.9,2745.4 2580.3,2748.4 2578.1,2749.6 C2571.1,2753.4 2570.3,2753.8 2558.6,2759.4 C2552.3,2762.4 2545.4,2765.4 2543.4,2766 C2541.3,2766.7 2539.4,2767.7 2539.1,2768.1 C2538.8,2768.6 2536.7,2769.5 2534.4,2770.1 C2532.2,2770.8 2528,2772.3 2525.2,2773.5 C2517.2,2777.2 2507.5,2780.8 2502.6,2782.1 C2500.1,2782.8 2497.7,2783.6 2497.1,2784 C2496.6,2784.5 2491.4,2786.2 2485.6,2788 C2479.8,2789.8 2472.2,2792.1 2468.6,2793.2 C2456.7,2797 2379.9,2815.5 2363.1,2818.7 C2358.7,2819.5 2352,2820.8 2348.1,2821.6 C2336.8,2823.8 2312.3,2827.2 2297.1,2828.7 C2293.3,2829 2288.8,2829.5 2287.1,2829.7 C2285.5,2830 2268.4,2830.6 2249.1,2831.1 C2205.5,2832.3 1294.5,2832.2 1289.6,2831.1 Z" id="Path"></path>
                <path d="M2180.2,924 C2177.5,912.6 2072.6,336.7 2073.1,336.2 C2074.3,335 2365.3,334.9 2375.6,336.1 C2386.5,337.3 2428.3,346.9 2439.6,350.8 C2457.1,356.7 2473.1,365.7 2497.6,383.4 C2530.6,407.2 2545,422.1 2572.6,460.6 C2592.3,488.1 2604,509.2 2614.9,536.6 C2622,554.5 2625.3,565.8 2632.6,596.6 C2643.2,641.6 2645.1,656.2 2644.3,689.4 C2644,702.3 2643.1,715.7 2642.2,721.3 C2640,734.9 2629,780.8 2625.4,791.1 C2617.1,815.2 2595.7,848.9 2576.1,868.7 C2559.2,885.8 2529.6,905.4 2512.6,911 C2505,913.4 2466.2,922.6 2459.6,923.5 C2452,924.5 2418.6,925 2297.4,925.7 L2180.7,926.4 L2180.2,924 Z M2407.1,725.6 C2415.7,723.2 2428.1,717.1 2435.2,711.8 C2446.9,702.9 2457.2,687.3 2461.3,672.1 C2464.1,661.9 2463.8,637.2 2460.8,626.6 C2455.5,608.4 2445,590.7 2431.2,577.1 C2407.2,553.3 2377.5,542.1 2346.6,545.3 C2295.5,550.4 2266.2,599 2282.8,651.1 C2291.5,678.3 2313.3,703.4 2339.8,716.7 C2348.4,721 2361.3,725.3 2371.1,727.1 C2378.4,728.4 2400,727.5 2407.1,725.6 Z" id="Shape"></path>
                <path d="M399.6,139.4 C369.3,134.3 346.7,114 338.5,84.6 C335.6,74.3 335.4,56.9 338,47.2 C344.2,24.1 361,7.9 384.6,2 C396.7,-1.1 415.6,-0.4 427.1,3.5 C439.7,7.8 447.2,12.5 456.6,22 C466.1,31.5 471.6,40.9 475.7,54.1 C479.1,64.9 479.1,84.3 475.8,95.1 C468.7,118 449.9,134.7 426.2,139 C420.5,140.1 404.8,140.3 399.6,139.4 Z M418.1,111 C434.7,107.9 445.4,95.5 446.4,78 C447.5,58.4 437.6,40.6 420.8,32.4 C413.6,28.8 412.7,28.6 403.7,28.6 C395.3,28.6 393.3,29 387.8,31.5 C373,38.3 365.1,55.5 368.5,73.3 C372.2,92.1 386.5,107.8 402.9,111.1 C408.9,112.2 411.5,112.2 418.1,111 Z" id="Shape"></path>
                <path d="M1080.8,139.1 C1064.9,136.2 1053.2,129.9 1041.1,117.7 C1030.7,107.3 1025,97.2 1021.6,83.7 C1019.1,74 1018.9,57.5 1021.2,48.1 C1026.5,25.2 1045.5,6.8 1069.2,1.5 C1079.7,-0.8 1099.2,-4.57966998e-15 1109.1,3.1 C1133.4,10.7 1151,28.4 1158.6,52.6 C1161.7,62.5 1162.5,80.2 1160.2,90.5 C1158,100.1 1152.1,112 1146.1,118.8 C1139.7,126.1 1128.2,133.5 1118.3,136.7 C1111.7,138.8 1107.7,139.4 1098.1,139.7 C1091.5,139.8 1083.7,139.6 1080.8,139.1 Z M1101.8,111 C1121.4,106.8 1132.1,90.5 1129.4,68.4 C1127.6,53.1 1115.2,36.2 1101.9,31 C1093.1,27.6 1079.2,27.7 1071.6,31.2 C1064,34.7 1059.5,38.9 1055.8,45.9 C1042.9,70 1058.4,104.2 1085.1,110.7 C1091.6,112.3 1095.3,112.4 1101.8,111 Z" id="Shape"></path>
                <path d="M1434.9,139 C1421,136.7 1403.9,127.7 1394,117.5 C1379.6,102.7 1372.4,85.4 1372.3,64.6 C1372.2,51.7 1373.9,44.1 1379.3,33.2 C1386.6,18.1 1404,5.4 1422.4,1.6 C1431.7,-0.3 1448,-0.3 1457.1,1.6 C1466.6,3.6 1479.4,10 1484.1,15.2 C1487.7,19.2 1487.8,19.5 1487.4,25.8 C1487,31.6 1486.7,32.5 1483.3,35.9 C1479.8,39.4 1479.2,39.6 1473.3,39.6 C1467.7,39.6 1466.5,39.2 1460.2,35.2 C1448.9,27.9 1439.2,26.4 1427.3,30.1 C1410.5,35.3 1401.3,52.4 1404.6,72 C1410.4,106.6 1449.2,123.7 1472.8,102.2 C1475.7,99.6 1479.1,96.9 1480.3,96.3 C1483.6,94.5 1492.3,94.8 1495.7,96.8 C1499.1,98.8 1502.6,105.4 1502.6,109.6 C1502.6,120.8 1484.9,134.6 1465.4,138.5 C1457.2,140.2 1443.4,140.4 1434.9,139 Z" id="Path"></path>
                <path d="M2410.6,139.2 C2406.4,137.9 2402.2,135.4 2400,132.9 C2395.7,128.1 2328.2,22.4 2326.8,18.3 C2324,10 2328.6,2.3 2337,1.4 C2346.5,0.3 2349.6,2.7 2360.2,19.6 L2368.1,32.1 L2397.6,31.9 L2427.1,31.6 L2429.4,21.1 C2432.1,8.9 2433.8,5.5 2438.6,3 C2442.9,0.7 2450.6,0.5 2454.7,2.6 C2458.7,4.7 2461.6,9.7 2461.6,14.5 C2461.6,20.5 2434.8,129 2432.4,133 C2428.8,138.7 2418.7,141.6 2410.6,139.2 Z M2416,80.1 C2418.5,68.9 2420.6,59.6 2420.6,59.4 C2420.6,59.2 2412.7,59.1 2403.1,59.1 C2393.5,59.1 2385.6,59.4 2385.6,59.7 C2385.6,60.6 2410.8,101.2 2411.2,100.9 C2411.3,100.7 2413.5,91.4 2416,80.1 Z" id="Shape"></path>
                <path d="M1732.1,137.9 C1728.8,136.1 1724.8,132 1723.7,129.2 C1723.1,127.8 1717.6,102.1 1711.6,72.1 C1700.3,16.4 1700,14.1 1703.1,8 C1706.1,2.3 1707.7,2.1 1750.8,2.1 C1793.8,2.1 1793.3,2.1 1797.4,8.1 C1801.9,14.7 1798.8,24.9 1791.2,28.5 C1788.3,29.8 1783.7,30.1 1761.2,30.1 C1740.2,30.1 1734.6,30.4 1734.6,31.4 C1734.6,32.1 1738.7,52.9 1743.7,77.6 C1753.1,124.6 1753.5,128.2 1749.9,133.7 C1746.9,138.4 1737.1,140.7 1732.1,137.9 Z" id="Path"></path>
                <path d="M2707.9,138.2 C2703,137 2699.8,134.5 2697.7,130.3 C2695.3,125.6 2674.6,22.6 2674.6,15.3 C2674.6,5.7 2679,1.1 2688.3,1.1 C2694.3,1.1 2698.9,3.8 2701.5,8.8 C2702.5,10.9 2706.8,29.3 2711,50 C2715.2,70.6 2718.8,87.6 2719,87.8 C2719.2,88 2728.7,70.5 2740.1,48.9 C2751.5,27.3 2762.2,8.2 2763.8,6.5 C2767.5,2.6 2774,0.6 2780.3,1.5 C2786.5,2.3 2789.4,4.4 2791.6,9.4 C2794.5,16.1 2815.9,123.6 2815,127.4 C2813.9,132.7 2811.9,135.7 2808.2,137.5 C2801.4,140.7 2794.3,139.1 2789.3,133.2 C2786.4,129.7 2785.1,124.7 2776.9,83.4 C2773.8,67.3 2770.8,54.5 2770.5,54.9 C2770.1,55.3 2761.1,72 2750.6,92.1 C2740.1,112.2 2730.4,130 2729.1,131.7 C2725,137 2715.3,140 2707.9,138.2 Z" id="Path"></path>
                <path d="M31.1,136.7 C27.3,135 24.1,131.5 22.3,127.1 C21.5,125.2 16,99.1 10.1,69.1 C-0.5,16.1 -0.7,14.5 0.7,10.1 C2.6,4.1 7.1,1.1 14.1,1.1 C20.4,1.1 25,3.9 27.8,9.2 C28.8,11.2 31.1,20.1 32.8,29 L36,45.1 L46.7,45.1 L57.4,45.1 L69.9,26.9 C83.5,7 85.3,5 90.8,2.6 C101.9,-2 113.5,3.7 113.6,13.8 C113.6,18.8 112.3,21.2 101.7,35.5 L91.8,48.9 L94.9,49.5 C100.9,50.7 112.5,57.3 117.7,62.4 C120.8,65.5 124.1,70.1 126,74 C128.7,79.8 129.1,81.9 129.4,91.3 C129.8,100.2 129.5,103 127.7,108.3 C122.3,124.6 108.4,134.3 86.6,137.1 C74.8,138.6 34.7,138.3 31.1,136.7 Z M83.7,109 C87.4,108.2 90.1,106.8 92.8,104.2 C100.1,97.5 99.8,88.1 92.2,80.5 C86,74.2 80.7,72.9 59.2,72.4 C42.2,71.9 41.4,72 41.9,73.7 C42.2,74.8 43.9,82.8 45.6,91.6 C47.3,100.4 48.9,108.2 49.1,108.9 C49.7,110.5 76.3,110.6 83.7,109 Z" id="Shape"></path>
                <path d="M716.1,136.7 C712.3,135 709.1,131.5 707.6,127.6 C705.6,122.5 685.6,20.9 685.6,16.1 C685.6,10.4 687.2,7.3 691.6,4.3 L695.1,2 L730.6,2.4 C763.7,2.7 766.6,2.9 773.5,5 C783.5,8 788,10.5 794.2,16.3 C801.8,23.5 804.1,29.2 804.1,41.1 C804,49.4 803.7,51.2 801.4,55.6 C798.6,61 794.1,65.7 788.8,68.9 L785.4,70.9 L789.3,72.1 C803.3,76.7 811.4,89.1 810.4,104 C809.2,119.7 799.4,130.5 781.5,135.8 C773.8,138 720.5,138.8 716.1,136.7 Z M773.1,108.4 C782.9,103.3 782.1,91 771.6,85.8 C767.5,83.8 765.3,83.6 747.9,83.3 C737.3,83.1 728.6,83.3 728.6,83.7 C728.6,84.2 729.7,90.4 731.1,97.6 C732.5,104.7 733.6,110.7 733.6,110.9 C733.6,111.1 741.6,111.1 751.4,110.9 C767.1,110.6 769.6,110.3 773.1,108.4 Z M765.7,55.9 C776.7,51.1 776.2,37.1 764.8,31.8 C760.5,29.8 758.2,29.6 738.7,29.3 L717.3,29 L717.9,31.8 C718.2,33.3 719.5,39.9 720.7,46.5 L723.1,58.3 L742.6,57.9 C757.5,57.6 762.9,57.1 765.7,55.9 Z" id="Shape"></path>
                <path d="M2045,136.7 C2041.3,135.1 2037.8,131.5 2036.5,128.1 C2034.5,123.1 2014.5,22.4 2014.4,17.1 C2014.3,10.2 2016.4,5.9 2021,3.7 C2024,2.3 2029.6,2.1 2066.3,2.1 C2105.9,2.1 2108.3,2.2 2111.3,4.1 C2115.3,6.5 2116.9,9.5 2116.9,14.6 C2116.9,19.8 2114.3,24.7 2110.3,27.1 C2107.3,29 2105.1,29.1 2076.7,29.1 L2046.4,29.1 L2046.9,31.4 C2047.2,32.6 2048.5,38.9 2049.7,45.4 L2052,57.1 L2080.9,57.1 C2113.2,57.1 2114,57.3 2117.2,63.9 C2120.4,70.6 2117.5,78.5 2110.6,82.2 C2107.5,83.9 2104.6,84.1 2082.3,84.1 C2059.1,84.1 2057.5,84.2 2058,85.9 C2058.3,86.8 2059.5,92.7 2060.7,98.9 L2062.9,110.1 L2094.8,110.1 C2129.4,110.1 2131.3,110.4 2135.4,115.6 C2138.4,119.4 2138.4,126.6 2135.3,131.2 C2130.7,138.1 2130.6,138.1 2087.1,138.1 C2056.6,138 2047.4,137.7 2045,136.7 Z" id="Path"></path>
            </g>
        </g>
    </g>
</svg>