<?xml version="1.0" encoding="UTF-8" standalone="no"?>
<!DOCTYPE svg PUBLIC "-//W3C//DTD SVG 1.1//EN" "http://www.w3.org/Graphics/SVG/1.1/DTD/svg11.dtd">
<svg width="100%" height="100%" viewBox="0 0 32 32" version="1.1" xmlns="http://www.w3.org/2000/svg" xmlns:xlink="http://www.w3.org/1999/xlink" xml:space="preserve" xmlns:serif="http://www.serif.com/" style="fill-rule:evenodd;clip-rule:evenodd;stroke-linejoin:round;stroke-miterlimit:2;">
    <g transform="matrix(1,0,0,1,0,-1630)">
        <g id="safari-pinned-tab" transform="matrix(0.147991,0,0,0.155306,-3.67098,1624.19)">
            <rect x="24.805" y="37.435" width="216.229" height="206.045" style="fill:none;"/>
            <clipPath id="_clip1">
                <rect x="24.805" y="37.435" width="216.229" height="206.045"/>
            </clipPath>
            <g clip-path="url(#_clip1)">
                <g transform="matrix(5.51478,0,0,5.25503,-25.0068,-8408.06)">
                    <path d="M30.029,1628.81L24.291,1639.38C24.047,1639.83 23.754,1640.21 23.412,1640.51C23.071,1640.81 22.599,1640.96 21.996,1640.96C21.443,1640.96 20.983,1640.81 20.617,1640.5C20.251,1640.19 19.946,1639.82 19.701,1639.4L13.647,1629C13.744,1631.2 13.834,1633.22 13.915,1635.08C13.948,1635.88 13.98,1636.67 14.013,1637.47C14.046,1638.27 14.078,1639.01 14.111,1639.69C14.143,1640.38 14.172,1640.98 14.196,1641.51C14.22,1642.04 14.241,1642.43 14.257,1642.67C14.273,1642.92 14.269,1643.14 14.245,1643.33C14.22,1643.53 14.159,1643.69 14.062,1643.83C13.964,1643.97 13.826,1644.08 13.647,1644.15C13.468,1644.22 13.224,1644.26 12.914,1644.26L10.229,1644.26C9.936,1644.26 9.663,1644.17 9.411,1643.98C9.159,1643.79 9.032,1643.42 9.032,1642.87L9.032,1611.81C9.032,1611.5 9.077,1611.19 9.167,1610.88C9.256,1610.58 9.411,1610.3 9.631,1610.04C9.85,1609.79 10.139,1609.59 10.497,1609.43C10.855,1609.28 11.295,1609.2 11.816,1609.2L19.677,1609.2C20.312,1609.2 20.857,1609.31 21.313,1609.53C21.768,1609.75 22.159,1610.11 22.485,1610.62L29.052,1621.04L33.447,1612.62C33.707,1612.11 33.959,1611.65 34.203,1611.24C34.448,1610.82 34.736,1610.47 35.07,1610.16C35.404,1609.86 35.819,1609.63 36.315,1609.46C36.812,1609.29 37.45,1609.2 38.232,1609.2L44.726,1609.2C45.344,1609.2 45.877,1609.28 46.325,1609.44C46.773,1609.61 47.139,1609.83 47.424,1610.1C47.708,1610.38 47.916,1610.71 48.046,1611.08C48.176,1611.45 48.241,1611.86 48.241,1612.3L48.241,1640.87C48.241,1641.37 48.201,1641.83 48.119,1642.25C48.038,1642.66 47.871,1643.02 47.619,1643.32C47.367,1643.62 47.009,1643.85 46.545,1644.02C46.081,1644.18 45.475,1644.26 44.726,1644.26L33.447,1644.26C32.779,1644.26 32.226,1644.19 31.786,1644.04C31.347,1643.89 30.997,1643.68 30.737,1643.4C30.476,1643.13 30.293,1642.78 30.187,1642.36C30.081,1641.93 30.029,1641.43 30.029,1640.87L30.029,1628.81ZM20.678,1611.93C20.483,1611.61 20.267,1611.41 20.031,1611.35C19.795,1611.28 19.547,1611.25 19.286,1611.25L18.066,1611.25L26.855,1625.22L27.856,1623.34L20.678,1611.93ZM46.166,1612.81C46.166,1612.46 46.142,1612.17 46.093,1611.96C46.044,1611.75 45.947,1611.59 45.8,1611.48C45.654,1611.38 45.458,1611.31 45.214,1611.29C44.97,1611.26 44.653,1611.25 44.262,1611.25L44.262,1642.21C44.653,1642.21 44.97,1642.2 45.214,1642.17C45.458,1642.15 45.654,1642.08 45.8,1641.98C45.947,1641.87 46.044,1641.72 46.093,1641.51C46.142,1641.31 46.166,1641.02 46.166,1640.65L46.166,1612.81Z" style="fill:rgb(112,37,92);fill-opacity:0.83;fill-rule:nonzero;"/>
                </g>
            </g>
        </g>
    </g>
</svg>
