<?xml version="1.0" standalone="no"?>
<!DOCTYPE svg PUBLIC "-//W3C//DTD SVG 20010904//EN"
 "http://www.w3.org/TR/2001/REC-SVG-20010904/DTD/svg10.dtd">
<svg version="1.0" xmlns="http://www.w3.org/2000/svg"
 width="700.000000pt" height="700.000000pt" viewBox="0 0 700.000000 700.000000"
 preserveAspectRatio="xMidYMid meet">
<metadata>
Created by potrace 1.14, written by Peter Selinger 2001-2017
</metadata>
<g transform="translate(0.000000,700.000000) scale(0.100000,-0.100000)"
fill="#000000" stroke="none">
<path d="M787 5324 c-1 -1 -29 -5 -62 -8 -222 -25 -413 -138 -508 -303 -43
-74 -56 -111 -94 -258 -4 -16 -9 -775 -10 -1685 l-3 -1655 435 1 c240 1 438 3
440 6 3 3 5 726 5 1607 0 1760 -4 1647 59 1684 25 15 58 17 233 17 220 -1 234
-4 269 -56 18 -28 19 -64 19 -1644 l0 -1615 418 2 c229 1 428 2 442 2 l25 1
-1 1602 c-1 1233 2 1610 11 1633 7 17 22 39 35 50 20 18 39 20 228 23 225 3
248 -1 284 -51 l22 -30 0 -1614 0 -1613 30 -1 c161 -3 836 0 843 4 15 9 9
3237 -6 3322 -53 299 -208 475 -481 549 -97 26 -149 29 -506 31 -459 2 -559
-14 -723 -113 -67 -40 -157 -124 -167 -154 -5 -16 -16 -7 -69 49 -95 103 -209
164 -370 199 -66 14 -142 17 -438 19 -196 1 -358 1 -360 -1z"/>
<path d="M4519 5261 c-1 -3 -2 -869 -3 -1923 l-1 -1918 30 -1 c35 -1 837 -1
846 0 3 1 6 339 6 751 0 413 2 752 4 755 3 2 196 5 429 6 455 2 517 7 651 58
167 63 304 207 358 374 47 148 50 191 50 737 0 533 -4 586 -45 715 -65 205
-214 351 -418 410 -139 40 -187 42 -1062 43 -464 0 -845 -3 -845 -7z m1437
-588 c17 -13 37 -35 43 -51 9 -20 11 -167 9 -540 l-3 -512 -33 -32 -32 -33
-267 -3 c-161 -2 -269 1 -272 7 -5 7 -6 1092 -2 1171 1 13 36 15 264 15 254 0
263 -1 293 -22z"/>
</g>
</svg>
