<?xml version="1.0" encoding="UTF-8" standalone="no"?>
<!DOCTYPE svg PUBLIC "-//W3C//DTD SVG 1.1//EN" "http://www.w3.org/Graphics/SVG/1.1/DTD/svg11.dtd">
<svg width="100%" height="100%" viewBox="0 0 32 32" version="1.1" xmlns="http://www.w3.org/2000/svg" xmlns:xlink="http://www.w3.org/1999/xlink" xml:space="preserve" xmlns:serif="http://www.serif.com/" style="fill-rule:evenodd;clip-rule:evenodd;stroke-linejoin:round;stroke-miterlimit:2;">
    <g transform="matrix(1,0,0,1,0,-1302)">
        <g transform="matrix(0.147991,0,0,0.155306,-3.67098,1296.19)">
            <rect id="safari-pinned-tab" x="24.805" y="37.435" width="216.229" height="206.045" style="fill:none;"/>
            <g id="safari-pinned-tab1" serif:id="safari-pinned-tab">
                <g transform="matrix(0.965433,0,0,1.47569,-47.8943,-278.656)">
                    <path d="M107.033,321.745L78.802,321.745L78.802,259.431C78.802,248.986 87.137,243.764 103.806,243.764L118.728,243.764C128.542,243.764 135.532,245.663 139.699,249.461C143.598,245.663 150.588,243.764 160.671,243.764L175.592,243.764C192.262,243.764 200.597,248.986 200.597,259.431L200.597,321.745L172.366,321.745L172.366,258.007C172.366,257.374 171.996,256.82 171.257,256.345C170.518,255.87 169.61,255.633 168.535,255.633L157.646,255.633C156.57,255.633 155.663,255.87 154.924,256.345C154.184,256.82 153.815,257.374 153.815,258.007L153.815,321.745L125.584,321.745L125.584,258.007C125.584,257.374 125.214,256.82 124.475,256.345C123.736,255.87 122.828,255.633 121.753,255.633L110.864,255.633C109.788,255.633 108.881,255.87 108.142,256.345C107.402,256.82 107.033,257.374 107.033,258.007L107.033,321.745Z" style="fill-rule:nonzero;"/>
                    <path d="M270.77,244.951C287.439,244.951 295.774,250.173 295.774,260.618L295.774,275.929C295.774,286.374 287.439,291.597 270.77,291.597L247.984,291.597L247.984,321.745L219.753,321.745L219.753,244.951L270.77,244.951ZM267.543,277.828L267.543,258.719C267.543,258.086 267.174,257.532 266.434,257.057C265.695,256.582 264.787,256.345 263.712,256.345L247.984,256.345L247.984,280.202L263.712,280.202C264.787,280.202 265.695,279.965 266.434,279.49C267.174,279.015 267.543,278.461 267.543,277.828Z" style="fill-rule:nonzero;"/>
                </g>
            </g>
        </g>
    </g>
</svg>
