<?xml version="1.0" encoding="UTF-8"?>
<svg version="1.1" viewBox="0 0 32 32" xmlns="http://www.w3.org/2000/svg">
<g transform="translate(3 3)" fill="#fff">
<path d="m12.265 0-11.765 7.52h8.0767c-0.030292 0.11355-0.079141 0.21675-0.1034 0.33487-0.067647 0.36397-0.12063 0.76427-0.12063 1.1809 0 5.3708 5.3682 4.7646 5.3682 4.7646v1.3689c0 0.55497 0.71179 0.36282 0.79561 1.4893-0.35588 0-7.4362-0.20849-7.4362 4.6765 0 4.903 6.25 4.6618 6.25 4.6618s7.2179 0.33013 7.2179-5.734c0.0029427-3.6231-4.1332-4.8025-4.1332-6.2569 0-1.4724 3.1164-1.905 3.1164-5.3521 0-1.507-0.10085-2.5803-0.76114-3.3429-0.051471-0.05264-0.084996-0.088783-0.135-0.12337-0.011363-0.010827-0.02581-0.018712-0.037338-0.029375h0.18095l3.0446-2.3353v3.1931c-8.391e-4 0.058258 0.0049443 0.11642 0.017234 0.17331-0.47026 0.26908-0.75898 0.77963-0.75253 1.3307v1.504c-0.0075005 0.5424 0.27114 1.0469 0.72922 1.3203 0.45808 0.27344 1.0246 0.27344 1.4827 0 0.45808-0.27344 0.73673-0.77794 0.72922-1.3203v-1.504c0.0064551-0.55106-0.28227-1.0616-0.75253-1.3307 0.01229-0.056893 0.018073-0.11505 0.017234-0.17331v-4.324l2.2059-1.692h-13.235zm1.2057 5.0023c0.36732-0.019667 0.73705 0.085858 1.0893 0.32129 0.26418 0.15695 0.51205 0.38107 0.73284 0.66027 0.45562 0.53878 0.83895 1.321 1.0444 2.2431 0.48497 2.1898-0.14507 4.2956-1.4532 4.6956-1.2941 0.43313-2.7365-0.99547-3.2355-3.1687-0.22079-1.0594-0.19032-2.084 0.059824-2.9005 0.0023585-0.01053 0.0075247-0.019017 0.00997-0.029476 0.004292-0.0024912 0.010798-0.0094016 0.014956-0.01179 0.071704-0.3228 0.18891-0.6124 0.33152-0.85186 0.26232-0.45318 0.6083-0.76012 1.0394-0.89608 0.12124-0.034711 0.24398-0.055345 0.36642-0.0619zm0.30976 12.015c2.4655-0.19403 4.5644 1.2303 4.7159 3.1659 0.10194 1.9189-1.7949 3.6258-4.2779 3.8015-2.4655 0.17569-4.5951-1.2292-4.713-3.148-0.11796-1.9357 1.792-3.6254 4.275-3.8194z"/>
</g>
</svg>
