<?xml version="1.0" encoding="UTF-8"?>
<svg version="1.1" viewBox="0 0 32 32" xmlns="http://www.w3.org/2000/svg">
<g transform="translate(0 3)" fill="#fff">
<path d="m28.711 6.4772c0.020312 0.28425 0.020312 0.56856 0.020312 0.85282 0 8.67-6.599 18.66-18.66 18.66-3.7158 0-7.1675-1.0762-10.071-2.9441 0.52794 0.060875 1.0355 0.081188 1.5838 0.081188 3.0659 0 5.8883-1.0355 8.1422-2.802-2.8833-0.060938-5.2995-1.9493-6.132-4.5483 0.40613 0.060875 0.81219 0.1015 1.2386 0.1015 0.58881 0 1.1777-0.08125 1.7259-0.22331-3.0051-0.60919-5.259-3.2488-5.259-6.4366v-0.081188c0.87307 0.48731 1.8884 0.79188 2.9644 0.83244-1.7665-1.1777-2.9238-3.1878-2.9238-5.462 0-1.2183 0.32481-2.335 0.89338-3.3096 3.2285 3.9797 8.0813 6.5787 13.523 6.863-0.1015-0.48731-0.16244-0.99488-0.16244-1.5025 0-3.6143 2.9239-6.5584 6.5584-6.5584 1.8883 0 3.5939 0.79188 4.7919 2.0711 1.4822-0.28425 2.9035-0.8325 4.1625-1.5838-0.48738 1.5229-1.5229 2.8021-2.8833 3.6142 1.3198-0.14206 2.599-0.50763 3.7766-1.0152-0.89325 1.2994-2.0101 2.4568-3.2893 3.3908z"/>
</g>
</svg>
